#!OML:ASF F:\VICON\USERDATA\INSTALL\rory3\rory3.ASF
:FULLY-SPECIFIED
:DEGREES
3729
root 0.317555 17.8301 -5.88097 6.337 24.8284 -0.877384
lowerback 12.0383 -5.2458 -4.96233
upperback -0.978912 -7.44332 3.63498
thorax -6.64467 -3.4054 7.92024
lowerneck -21.6736 -9.2257 -12.7557
upperneck 19.8988 -11.6993 11.889
head 11.5815 -4.90489 4.47347
rclavicle -1.11319e-014 1.51076e-014
rhumerus -16.765 15.4216 -45.4487
rradius 134.606
rwrist 3.61996
rhand -24.0731 7.2553
rfingers 7.12502
rthumb 2.4068 -22.7109
lclavicle -1.11319e-014 1.51076e-014
lhumerus -2.04725 -25.6895 85.9518
lradius 116.077
lwrist -2.76184
lhand -12.4402 12.4489
lfingers 7.12502
lthumb 13.6328 41.9825
rfemur -26.3242 -7.45152 5.55486
rtibia 42.7946
rfoot -9.02126 -19.1156
rtoes 8.08067
lfemur -17.0965 -14.5783 2.84738
ltibia 35.2312
lfoot -0.928342 -5.92659
ltoes -30.7219
3730
root 0.242848 17.7797 -5.84756 6.70682 25.6997 -0.542582
lowerback 12.3551 -4.83104 -4.48727
upperback -1.17275 -6.85745 3.26586
thorax -7.2287 -3.10346 7.23169
lowerneck -21.6445 -9.77564 -13.0151
upperneck 19.7417 -12.6028 12.6865
head 11.7334 -5.23808 4.63684
rclavicle -1.41634e-014 2.76311e-014
rhumerus -13.2696 12.696 -40.272
rradius 130.858
rwrist 2.52751
rhand -26.0651 6.34085
rfingers 7.12502
rthumb 0.48285 -23.6384
lclavicle -1.41634e-014 2.76311e-014
lhumerus -2.08155 -27.9019 86.6928
lradius 117.15
lwrist -2.15684
lhand -12.2606 13.0077
lfingers 7.12502
lthumb 13.8058 42.5296
rfemur -25.434 -6.65828 4.03071
rtibia 40.9512
rfoot -9.0668 -19.2463
rtoes 7.86805
lfemur -18.5306 -14.8827 2.9262
ltibia 34.7097
lfoot -1.73009 -9.28947
ltoes -29.5623
3731
root 0.175776 17.7105 -5.82314 6.87696 26.3084 -0.149149
lowerback 12.8226 -4.34649 -3.83048
upperback -1.25701 -6.16408 2.73366
thorax -7.81485 -2.76871 6.2437
lowerneck -21.5712 -10.2792 -13.0939
upperneck 19.5013 -13.4696 13.3817
head 11.8292 -5.55615 4.73493
rclavicle 6.06293e-014 2.127e-014
rhumerus -9.74607 9.57323 -35.679
rradius 125.724
rwrist 3.68474
rhand -26.9679 5.46276
rfingers 7.12502
rthumb -0.389071 -24.5166
lclavicle 6.06293e-014 2.127e-014
lhumerus -2.34172 -30.2379 87.3295
lradius 118.462
lwrist -1.78676
lhand -12.3637 13.5985
lfingers 7.12502
lthumb 13.7065 43.1271
rfemur -24.5912 -5.67251 2.36383
rtibia 39.3782
rfoot -8.76706 -19.0571
rtoes 5.33164
lfemur -19.6047 -14.9624 2.72762
ltibia 34.4038
lfoot -2.23582 -12.5215
ltoes -29.0932
3732
root 0.112342 17.6105 -5.80552 6.97648 26.7162 0.289887
lowerback 13.2176 -3.86181 -3.09124
upperback -1.23669 -5.45745 2.13073
thorax -8.23426 -2.45092 5.09924
lowerneck -21.4063 -10.6824 -12.8953
upperneck 19.0539 -14.1819 13.7724
head 11.7609 -5.82905 4.69925
rclavicle -6.54747e-014 -6.36111e-015
rhumerus -6.13829 6.29734 -31.6973
rradius 119.289
rwrist 6.48348
rhand -26.9557 4.3274
rfingers 7.12502
rthumb -0.377308 -25.652
lclavicle -6.54747e-014 -6.36111e-015
lhumerus -2.89417 -32.441 87.9787
lradius 119.938
lwrist -1.92547
lhand -12.8001 13.7954
lfingers 7.12502
lthumb 13.2858 43.3519
rfemur -23.7715 -4.58986 0.662374
rtibia 38.0333
rfoot -8.45507 -18.6205
rtoes 2.29508
lfemur -20.4963 -14.8863 2.38226
ltibia 34.5366
lfoot -2.6408 -14.4568
ltoes -29.5121
3733
root 0.0494081 17.4928 -5.79576 6.88196 26.7596 0.651145
lowerback 13.7334 -3.33695 -2.20417
upperback -1.1064 -4.67517 1.47522
thorax -8.59224 -2.11492 3.78972
lowerneck -21.2688 -11.0549 -12.7293
upperneck 18.5088 -14.8245 14.1921
head 11.6581 -6.07414 4.69029
rclavicle 7.8023e-015 -2.61402e-014
rhumerus -2.22062 3.22876 -28.3743
rradius 111.369
rwrist 9.61902
rhand -25.636 2.57502
rfingers 7.12502
rthumb 0.897264 -27.4028
lclavicle 7.8023e-015 -2.61402e-014
lhumerus -3.48361 -34.2238 88.494
lradius 121.487
lwrist -2.16203
lhand -13.151 13.6804
lfingers 7.12502
lthumb 12.9477 43.2587
rfemur -22.984 -3.15704 -0.918718
rtibia 36.8726
rfoot -8.03465 -17.6088
rtoes -0.526768
lfemur -21.0131 -14.9027 2.04807
ltibia 35.2959
lfoot -3.37111 -14.126
ltoes -28.9377
3734
root -0.0117295 17.378 -5.79226 6.58647 26.2049 0.973024
lowerback 14.3718 -2.68521 -1.32051
upperback -0.863822 -3.72313 0.778209
thorax -8.86572 -1.70685 2.38613
lowerneck -21.1786 -11.3927 -12.6499
upperneck 17.9589 -15.3995 14.693
head 11.5714 -6.28708 4.73706
rclavicle 3.11968e-014 1.49089e-014
rhumerus 2.27051 0.3975 -25.6433
rradius 101.747
rwrist 12.3385
rhand -22.1456 0.921803
rfingers 7.12502
rthumb 4.26816 -29.0152
lclavicle 3.11968e-014 1.49089e-014
lhumerus -3.87182 -35.566 88.7777
lradius 123.01
lwrist -2.49329
lhand -12.8615 13.5593
lfingers 7.12502
lthumb 13.2267 43.1197
rfemur -22.4736 -1.34783 -2.39024
rtibia 35.91
rfoot -7.08142 -15.7169
rtoes -2.76282
lfemur -20.998 -14.9149 1.65112
ltibia 36.7457
lfoot -4.53993 -12.3281
ltoes -28.6889
3735
root -0.0742073 17.2642 -5.79893 6.1485 25.115 1.05231
lowerback 14.7289 -1.88375 -0.362637
upperback -0.458513 -2.54641 0.127609
thorax -8.75146 -1.20268 0.900935
lowerneck -20.8328 -11.6733 -12.5712
upperneck 17.244 -15.8955 15.2183
head 11.3703 -6.48349 4.81405
rclavicle 5.92782e-015 -1.09704e-014
rhumerus 7.18596 -2.43461 -23.3667
rradius 90.6474
rwrist 13.8582
rhand -18.1798 0.502739
rfingers 7.12502
rthumb 8.09684 -29.3221
lclavicle 5.92782e-015 -1.09704e-014
lhumerus -3.99558 -36.8221 88.8444
lradius 124.578
lwrist -3.29028
lhand -12.3807 13.9985
lfingers 7.12502
lthumb 13.6901 43.5282
rfemur -22.453 0.420059 -3.44653
rtibia 35.2076
rfoot -6.08271 -13.1972
rtoes -5.22012
lfemur -20.7411 -14.6122 1.42448
ltibia 38.7504
lfoot -5.77723 -10.8033
ltoes -30.8551
3736
root -0.135417 17.1464 -5.81185 5.59505 23.577 0.812941
lowerback 15.2815 -1.08293 0.753271
upperback -0.205376 -1.32953 -0.400169
thorax -8.84427 -0.678862 -0.556638
lowerneck -20.5052 -11.7946 -12.3177
upperneck 16.8202 -16.1467 15.3356
head 11.1835 -6.59685 4.76896
rclavicle -2.20775e-014 -3.2054e-015
rhumerus 12.9224 -4.63229 -21.6112
rradius 77.9789
rwrist 14.3296
rhand -15.3393 0.483648
rfingers 7.12502
rthumb 10.8375 -29.2167
lclavicle -2.20775e-014 -3.2054e-015
lhumerus -4.73823 -37.8641 89.1227
lradius 126.28
lwrist -4.29176
lhand -12.634 14.6966
lfingers 7.12502
lthumb 13.446 44.2427
rfemur -22.8643 1.8541 -3.93835
rtibia 34.9195
rfoot -5.78344 -10.4219
rtoes -6.47326
lfemur -20.358 -14.0353 1.43233
ltibia 41.035
lfoot -6.9897 -9.86166
ltoes -32.9677
3737
root -0.190741 17.0251 -5.82276 4.96344 21.5029 0.358225
lowerback 15.8662 -0.30058 1.79889
upperback 0.0205795 -0.120899 -0.6972
thorax -8.90975 -0.150847 -1.74469
lowerneck -20.4793 -11.7462 -11.9873
upperneck 16.7202 -16.0548 14.9154
head 11.0509 -6.58411 4.58221
rclavicle -2.87741e-014 1.97791e-014
rhumerus 19.8998 -6.49981 -20.6597
rradius 64.0203
rwrist 15.2178
rhand -13.1432 0.509049
rfingers 7.12502
rthumb 12.9551 -29.0688
lclavicle -2.87741e-014 1.97791e-014
lhumerus -5.8569 -38.3447 89.6543
lradius 127.863
lwrist -5.20206
lhand -13.1748 15.2223
lfingers 7.12502
lthumb 12.9247 44.8021
rfemur -23.6215 2.90947 -3.89669
rtibia 35.1702
rfoot -5.96155 -7.79881
rtoes -6.35493
lfemur -19.6731 -13.1587 1.52786
ltibia 43.3323
lfoot -8.49203 -8.78025
ltoes -33.3679
3738
root -0.237456 16.9016 -5.83199 4.32407 19.1672 -0.233584
lowerback 16.4678 0.398921 2.62922
upperback 0.0794082 0.978533 -0.653111
thorax -9.12309 0.337179 -2.43484
lowerneck -20.2477 -11.443 -11.7387
upperneck 16.8976 -15.4971 13.9438
head 10.8629 -6.4282 4.31543
rclavicle -5.42775e-016 -2.23105e-014
rhumerus 27.2311 -8.32487 -20.8577
rradius 50.3166
rwrist 17.4457
rhand -10.3482 0.522775
rfingers 7.12502
rthumb 15.6483 -28.8644
lclavicle -5.42775e-016 -2.23105e-014
lhumerus -7.53019 -38.1092 90.6769
lradius 129.199
lwrist -5.62453
lhand -13.8616 15.4675
lfingers 7.12502
lthumb 12.2626 45.088
rfemur -24.5941 3.55634 -3.40535
rtibia 35.9515
rfoot -6.13928 -5.46195
rtoes -8.1241
lfemur -18.7644 -12.0569 1.75393
ltibia 45.4036
lfoot -10.3304 -7.63169
ltoes -34.044
3739
root -0.276506 16.7736 -5.83319 3.74348 16.876 -1.10435
lowerback 16.8673 0.975369 3.56837
upperback 0.100474 1.96658 -0.325768
thorax -9.24629 0.77238 -2.86043
lowerneck -20.1868 -11.0123 -11.5836
upperneck 17.3096 -14.685 12.7345
head 10.7515 -6.17441 4.02229
rclavicle 1.15792e-014 -1.98785e-016
rhumerus 33.9897 -10.0702 -22.0741
rradius 38.9018
rwrist 21.9486
rhand -7.48237 -1.23935
rfingers 7.12502
rthumb 18.4068 -30.3885
lclavicle 1.15792e-014 -1.98785e-016
lhumerus -9.28829 -37.4862 91.7634
lradius 130.499
lwrist -4.5481
lhand -14.1526 16.0915
lfingers 7.12502
lthumb 11.9819 45.7286
rfemur -25.7711 3.85949 -2.38725
rtibia 37.1494
rfoot -6.25568 -3.11402
rtoes -11.3388
lfemur -17.8741 -10.7946 2.40382
ltibia 47.1366
lfoot -12.0881 -6.55372
ltoes -35.6343
3740
root -0.316194 16.6378 -5.81364 3.35647 14.761 -1.84651
lowerback 17.099 1.56684 4.45078
upperback 0.219151 2.9568 -0.0368073
thorax -9.14574 1.21737 -3.2899
lowerneck -20.4561 -10.7551 -11.6397
upperneck 17.5205 -14.0972 11.939
head 10.7267 -5.98295 3.85076
rclavicle 3.29983e-014 -2.5842e-015
rhumerus 37.0602 -13.6522 -26.1933
rradius 35.0596
rwrist 28.9866
rhand -4.70646 0.0647762
rfingers 7.12502
rthumb 21.0754 -28.8099
lclavicle 3.29983e-014 -2.5842e-015
lhumerus -10.2726 -37.0239 92.3829
lradius 131.645
lwrist -1.93344
lhand -13.6372 16.7787
lfingers 7.12502
lthumb 12.4789 46.3861
rfemur -27.1852 3.94695 -1.32354
rtibia 38.6723
rfoot -6.67087 -0.752911
rtoes -12.2644
lfemur -17.0148 -9.66468 3.10596
ltibia 48.4709
lfoot -13.6864 -5.51065
ltoes -37.7144
